<svg width="295" height="74" viewBox="0 0 295 74" fill="none" xmlns="http://www.w3.org/2000/svg">
<line x1="0.5" y1="2.18557e-08" x2="0.499997" y2="74" stroke="white"/>
<g filter="url(#filter0_d_19_987)">
<path d="M38.848 39.5L29.41 27.449V39.5H23.95V12.2H29.41V23.471L37.912 12.2H45.049L34.48 24.992L45.829 39.5H38.848ZM54.8657 40.007C48.5867 40.007 44.3747 35.249 44.3747 29.399C44.3747 23.549 48.7817 18.713 54.8657 18.713C60.9497 18.713 65.1617 23.549 65.1617 29.399C65.1617 29.984 65.1227 30.608 65.0057 31.271H49.8347C50.4197 33.65 52.2137 35.327 54.8657 35.327C57.1277 35.327 58.8827 34.157 59.8187 32.597L63.9137 35.678C62.2757 38.213 58.8827 40.007 54.8657 40.007ZM49.8347 27.332H59.8577C59.2727 25.07 57.3617 23.237 54.7877 23.237C52.2917 23.237 50.4197 24.914 49.8347 27.332ZM67.4731 39.5V19.22H72.6601V22.184C73.7131 19.922 75.7411 18.752 78.8611 18.752C83.2291 18.752 86.5831 21.989 86.5831 27.098V39.5H81.3181V28.385C81.3181 24.875 79.5631 23.354 76.9501 23.354C74.7271 23.354 72.7381 24.875 72.7381 28.385V39.5H67.4731ZM89.5248 39.5V19.22H94.7118V22.184C95.7648 19.922 97.7928 18.752 100.913 18.752C105.281 18.752 108.635 21.989 108.635 27.098V39.5H103.37V28.385C103.37 24.875 101.615 23.354 99.0018 23.354C96.7788 23.354 94.7898 24.875 94.7898 28.385V39.5H89.5248ZM121.288 40.007C115.009 40.007 110.797 35.249 110.797 29.399C110.797 23.549 115.204 18.713 121.288 18.713C127.372 18.713 131.584 23.549 131.584 29.399C131.584 29.984 131.545 30.608 131.428 31.271H116.257C116.842 33.65 118.636 35.327 121.288 35.327C123.55 35.327 125.305 34.157 126.241 32.597L130.336 35.678C128.698 38.213 125.305 40.007 121.288 40.007ZM116.257 27.332H126.28C125.695 25.07 123.784 23.237 121.21 23.237C118.714 23.237 116.842 24.914 116.257 27.332ZM142.871 40.007C137.294 40.007 132.848 35.288 132.848 29.438C132.848 23.588 137.294 18.791 142.871 18.791C146.342 18.791 148.175 20.195 149.267 22.34V11.03H154.532V39.5H149.423V36.185C148.331 38.486 146.498 40.007 142.871 40.007ZM138.113 29.399C138.113 32.48 140.375 35.249 143.729 35.249C147.2 35.249 149.423 32.597 149.423 29.438C149.423 26.279 147.2 23.549 143.729 23.549C140.375 23.549 138.113 26.24 138.113 29.399ZM159.728 47.651C158.675 47.651 157.271 47.573 156.218 47.261L156.998 42.23C157.778 42.425 158.519 42.503 159.377 42.503C161.405 42.503 162.692 41.216 163.277 39.422L163.55 38.564L155.516 19.22H161.873L165.812 30.803C166.163 31.778 166.475 32.987 166.67 34.04C166.865 32.987 167.177 31.778 167.528 30.803L171.467 19.22H177.707L168.737 40.787C167.021 44.882 164.486 47.651 159.728 47.651Z" fill="url(#paint0_linear_19_987)"/>
</g>
<g filter="url(#filter1_d_19_987)">
<path d="M156.21 66.007C148.098 66.007 141.975 59.689 141.975 51.889C141.975 44.05 147.786 37.693 156.21 37.693C160.656 37.693 163.737 39.058 166.194 41.983L162.333 45.337C160.695 43.621 158.667 42.763 156.21 42.763C150.945 42.763 147.63 46.897 147.63 51.889C147.63 56.881 150.945 60.937 156.327 60.937C158.979 60.937 160.968 60.04 162.567 58.285L166.545 61.678C164.478 64.174 160.968 66.007 156.21 66.007ZM177.263 66.007C170.984 66.007 166.46 61.249 166.46 55.399C166.46 49.549 170.984 44.752 177.263 44.752C183.542 44.752 188.066 49.549 188.066 55.399C188.066 61.249 183.542 66.007 177.263 66.007ZM171.725 55.399C171.725 58.558 173.909 61.21 177.263 61.21C180.617 61.21 182.801 58.558 182.801 55.399C182.801 52.24 180.617 49.549 177.263 49.549C173.909 49.549 171.725 52.24 171.725 55.399ZM190.396 65.5V45.22H195.505V49.081C196.207 46.156 198.274 44.557 201.784 44.752V49.705H201.043C198.001 49.705 195.661 51.733 195.661 55.126V65.5H190.396ZM211.788 66.007C206.211 66.007 201.765 61.288 201.765 55.438C201.765 49.588 206.211 44.791 211.788 44.791C215.259 44.791 217.092 46.195 218.184 48.34V37.03H223.449V65.5H218.34V62.185C217.248 64.486 215.415 66.007 211.788 66.007ZM207.03 55.399C207.03 58.48 209.292 61.249 212.646 61.249C216.117 61.249 218.34 58.597 218.34 55.438C218.34 52.279 216.117 49.549 212.646 49.549C209.292 49.549 207.03 52.24 207.03 55.399ZM236.289 66.007C230.01 66.007 225.798 61.249 225.798 55.399C225.798 49.549 230.205 44.713 236.289 44.713C242.373 44.713 246.585 49.549 246.585 55.399C246.585 55.984 246.546 56.608 246.429 57.271H231.258C231.843 59.65 233.637 61.327 236.289 61.327C238.551 61.327 240.306 60.157 241.242 58.597L245.337 61.678C243.699 64.213 240.306 66.007 236.289 66.007ZM231.258 53.332H241.281C240.696 51.07 238.785 49.237 236.211 49.237C233.715 49.237 231.843 50.914 231.258 53.332ZM248.896 65.5V45.22H254.161V65.5H248.896ZM248.35 40.423C248.35 38.746 249.715 37.342 251.509 37.342C253.342 37.342 254.668 38.746 254.668 40.423C254.668 42.178 253.342 43.543 251.509 43.543C249.715 43.543 248.35 42.139 248.35 40.423ZM257.275 65.5V45.22H262.384V49.081C263.086 46.156 265.153 44.557 268.663 44.752V49.705H267.922C264.88 49.705 262.54 51.733 262.54 55.126V65.5H257.275ZM279.447 66.007C273.168 66.007 268.644 61.249 268.644 55.399C268.644 49.549 273.168 44.752 279.447 44.752C285.726 44.752 290.25 49.549 290.25 55.399C290.25 61.249 285.726 66.007 279.447 66.007ZM273.909 55.399C273.909 58.558 276.093 61.21 279.447 61.21C282.801 61.21 284.985 58.558 284.985 55.399C284.985 52.24 282.801 49.549 279.447 49.549C276.093 49.549 273.909 52.24 273.909 55.399Z" fill="url(#paint1_linear_19_987)"/>
</g>
<defs>
<filter id="filter0_d_19_987" x="19.95" y="11.03" width="161.757" height="44.621" filterUnits="userSpaceOnUse" color-interpolation-filters="sRGB">
<feFlood flood-opacity="0" result="BackgroundImageFix"/>
<feColorMatrix in="SourceAlpha" type="matrix" values="0 0 0 0 0 0 0 0 0 0 0 0 0 0 0 0 0 0 127 0" result="hardAlpha"/>
<feOffset dy="4"/>
<feGaussianBlur stdDeviation="2"/>
<feComposite in2="hardAlpha" operator="out"/>
<feColorMatrix type="matrix" values="0 0 0 0 0 0 0 0 0 0 0 0 0 0 0 0 0 0 0.25 0"/>
<feBlend mode="normal" in2="BackgroundImageFix" result="effect1_dropShadow_19_987"/>
<feBlend mode="normal" in="SourceGraphic" in2="effect1_dropShadow_19_987" result="shape"/>
</filter>
<filter id="filter1_d_19_987" x="137.975" y="37.03" width="156.275" height="36.977" filterUnits="userSpaceOnUse" color-interpolation-filters="sRGB">
<feFlood flood-opacity="0" result="BackgroundImageFix"/>
<feColorMatrix in="SourceAlpha" type="matrix" values="0 0 0 0 0 0 0 0 0 0 0 0 0 0 0 0 0 0 127 0" result="hardAlpha"/>
<feOffset dy="4"/>
<feGaussianBlur stdDeviation="2"/>
<feComposite in2="hardAlpha" operator="out"/>
<feColorMatrix type="matrix" values="0 0 0 0 0 0 0 0 0 0 0 0 0 0 0 0 0 0 0.25 0"/>
<feBlend mode="normal" in2="BackgroundImageFix" result="effect1_dropShadow_19_987"/>
<feBlend mode="normal" in="SourceGraphic" in2="effect1_dropShadow_19_987" result="shape"/>
</filter>
<linearGradient id="paint0_linear_19_987" x1="100" y1="0.5" x2="100" y2="47.5" gradientUnits="userSpaceOnUse">
<stop stop-color="#EBECED"/>
<stop offset="0.769231" stop-color="white"/>
<stop offset="1" stop-color="#868687"/>
</linearGradient>
<linearGradient id="paint1_linear_19_987" x1="141" y1="50" x2="292" y2="50" gradientUnits="userSpaceOnUse">
<stop stop-color="#B9D4EF"/>
<stop offset="1" stop-color="#6A7A89"/>
</linearGradient>
</defs>
</svg>
