<svg xmlns="http://www.w3.org/2000/svg" version="1.1" xmlns:xlink="http://www.w3.org/1999/xlink" xmlns:svgjs="http://svgjs.dev/svgjs" width="1000" height="1000"><style>
    #light-icon {
      display: inline;
    }
    #dark-icon {
      display: none;
    }

    @media (prefers-color-scheme: dark) {
      #light-icon {
        display: none;
      }
      #dark-icon {
        display: inline;
      }
    }
  </style><g id="light-icon"><svg xmlns="http://www.w3.org/2000/svg" version="1.1" xmlns:xlink="http://www.w3.org/1999/xlink" xmlns:svgjs="http://svgjs.dev/svgjs" width="1000" height="1000"><g><g transform="matrix(14.705882352941176,0,0,14.705882352941176,132.3529411764706,0)"><svg xmlns="http://www.w3.org/2000/svg" version="1.1" xmlns:xlink="http://www.w3.org/1999/xlink" xmlns:svgjs="http://svgjs.dev/svgjs" width="50" height="68"><svg width="50" height="68" viewBox="0 0 50 68" fill="none" xmlns="http://www.w3.org/2000/svg">
<line x1="0.5" y1="8.75" x2="0.499998" y2="58.75" stroke="#6D6D6D"></line>
<g filter="url(#filter0_d_22_988)">
<path d="M29.848 39L20.41 26.949V39H14.95V11.7H20.41V22.971L28.912 11.7H36.049L25.48 24.492L36.829 39H29.848Z" fill="url(#paint0_linear_22_988)"></path>
</g>
<g filter="url(#filter1_d_22_988)">
<path d="M35.21 60.007C27.098 60.007 20.975 53.689 20.975 45.889C20.975 38.05 26.786 31.693 35.21 31.693C39.656 31.693 42.737 33.058 45.194 35.983L41.333 39.337C39.695 37.621 37.667 36.763 35.21 36.763C29.945 36.763 26.63 40.897 26.63 45.889C26.63 50.881 29.945 54.937 35.327 54.937C37.979 54.937 39.968 54.04 41.567 52.285L45.545 55.678C43.478 58.174 39.968 60.007 35.21 60.007Z" fill="url(#paint1_linear_22_988)"></path>
</g>
<defs>
<filter id="filter0_d_22_988" x="10.95" y="11.7" width="29.879" height="35.3" filterUnits="userSpaceOnUse" color-interpolation-filters="sRGB">
<feFlood flood-opacity="0" result="BackgroundImageFix"></feFlood>
<feColorMatrix in="SourceAlpha" type="matrix" values="0 0 0 0 0 0 0 0 0 0 0 0 0 0 0 0 0 0 127 0" result="hardAlpha"></feColorMatrix>
<feOffset dy="4"></feOffset>
<feGaussianBlur stdDeviation="2"></feGaussianBlur>
<feComposite in2="hardAlpha" operator="out"></feComposite>
<feColorMatrix type="matrix" values="0 0 0 0 0 0 0 0 0 0 0 0 0 0 0 0 0 0 0.25 0"></feColorMatrix>
<feBlend mode="normal" in2="BackgroundImageFix" result="effect1_dropShadow_22_988"></feBlend>
<feBlend mode="normal" in="SourceGraphic" in2="effect1_dropShadow_22_988" result="shape"></feBlend>
</filter>
<filter id="filter1_d_22_988" x="16.975" y="31.693" width="32.57" height="36.314" filterUnits="userSpaceOnUse" color-interpolation-filters="sRGB">
<feFlood flood-opacity="0" result="BackgroundImageFix"></feFlood>
<feColorMatrix in="SourceAlpha" type="matrix" values="0 0 0 0 0 0 0 0 0 0 0 0 0 0 0 0 0 0 127 0" result="hardAlpha"></feColorMatrix>
<feOffset dy="4"></feOffset>
<feGaussianBlur stdDeviation="2"></feGaussianBlur>
<feComposite in2="hardAlpha" operator="out"></feComposite>
<feColorMatrix type="matrix" values="0 0 0 0 0 0 0 0 0 0 0 0 0 0 0 0 0 0 0.25 0"></feColorMatrix>
<feBlend mode="normal" in2="BackgroundImageFix" result="effect1_dropShadow_22_988"></feBlend>
<feBlend mode="normal" in="SourceGraphic" in2="effect1_dropShadow_22_988" result="shape"></feBlend>
</filter>
<linearGradient id="paint0_linear_22_988" x1="24.5" y1="0" x2="24.5" y2="47" gradientUnits="userSpaceOnUse">
<stop stop-color="#434343"></stop>
<stop offset="1" stop-color="#A9A9A9"></stop>
</linearGradient>
<linearGradient id="paint1_linear_22_988" x1="20" y1="44" x2="46" y2="44" gradientUnits="userSpaceOnUse">
<stop stop-color="#B9D4EF"></stop>
<stop offset="0.591346" stop-color="#8DA2B6"></stop>
<stop offset="1" stop-color="#6A7A89"></stop>
</linearGradient>
</defs>
</svg></svg></g></g></svg></g><g id="dark-icon"><svg xmlns="http://www.w3.org/2000/svg" version="1.1" xmlns:xlink="http://www.w3.org/1999/xlink" xmlns:svgjs="http://svgjs.dev/svgjs" width="1000" height="1000"><g><g transform="matrix(14.705882352941176,0,0,14.705882352941176,132.3529411764706,0)"><svg xmlns="http://www.w3.org/2000/svg" version="1.1" xmlns:xlink="http://www.w3.org/1999/xlink" xmlns:svgjs="http://svgjs.dev/svgjs" width="50" height="68"><svg width="50" height="68" viewBox="0 0 50 68" fill="none" xmlns="http://www.w3.org/2000/svg">
<line x1="0.5" y1="8.75" x2="0.499998" y2="58.75" stroke="white"></line>
<g filter="url(#filter0_d_19_985)">
<path d="M29.848 39L20.41 26.949V39H14.95V11.7H20.41V22.971L28.912 11.7H36.049L25.48 24.492L36.829 39H29.848Z" fill="url(#paint0_linear_19_985)"></path>
</g>
<g filter="url(#filter1_d_19_985)">
<path d="M35.21 60.007C27.098 60.007 20.975 53.689 20.975 45.889C20.975 38.05 26.786 31.693 35.21 31.693C39.656 31.693 42.737 33.058 45.194 35.983L41.333 39.337C39.695 37.621 37.667 36.763 35.21 36.763C29.945 36.763 26.63 40.897 26.63 45.889C26.63 50.881 29.945 54.937 35.327 54.937C37.979 54.937 39.968 54.04 41.567 52.285L45.545 55.678C43.478 58.174 39.968 60.007 35.21 60.007Z" fill="url(#paint1_linear_19_985)"></path>
</g>
<defs>
<filter id="filter0_d_19_985" x="10.95" y="11.7" width="29.879" height="35.3" filterUnits="userSpaceOnUse" color-interpolation-filters="sRGB">
<feFlood flood-opacity="0" result="BackgroundImageFix"></feFlood>
<feColorMatrix in="SourceAlpha" type="matrix" values="0 0 0 0 0 0 0 0 0 0 0 0 0 0 0 0 0 0 127 0" result="hardAlpha"></feColorMatrix>
<feOffset dy="4"></feOffset>
<feGaussianBlur stdDeviation="2"></feGaussianBlur>
<feComposite in2="hardAlpha" operator="out"></feComposite>
<feColorMatrix type="matrix" values="0 0 0 0 0 0 0 0 0 0 0 0 0 0 0 0 0 0 0.25 0"></feColorMatrix>
<feBlend mode="normal" in2="BackgroundImageFix" result="effect1_dropShadow_19_985"></feBlend>
<feBlend mode="normal" in="SourceGraphic" in2="effect1_dropShadow_19_985" result="shape"></feBlend>
</filter>
<filter id="filter1_d_19_985" x="16.975" y="31.693" width="32.57" height="36.314" filterUnits="userSpaceOnUse" color-interpolation-filters="sRGB">
<feFlood flood-opacity="0" result="BackgroundImageFix"></feFlood>
<feColorMatrix in="SourceAlpha" type="matrix" values="0 0 0 0 0 0 0 0 0 0 0 0 0 0 0 0 0 0 127 0" result="hardAlpha"></feColorMatrix>
<feOffset dy="4"></feOffset>
<feGaussianBlur stdDeviation="2"></feGaussianBlur>
<feComposite in2="hardAlpha" operator="out"></feComposite>
<feColorMatrix type="matrix" values="0 0 0 0 0 0 0 0 0 0 0 0 0 0 0 0 0 0 0.25 0"></feColorMatrix>
<feBlend mode="normal" in2="BackgroundImageFix" result="effect1_dropShadow_19_985"></feBlend>
<feBlend mode="normal" in="SourceGraphic" in2="effect1_dropShadow_19_985" result="shape"></feBlend>
</filter>
<linearGradient id="paint0_linear_19_985" x1="24.5" y1="0" x2="24.5" y2="47" gradientUnits="userSpaceOnUse">
<stop stop-color="#EBECED"></stop>
<stop offset="0.769231" stop-color="white"></stop>
<stop offset="1" stop-color="#868687"></stop>
</linearGradient>
<linearGradient id="paint1_linear_19_985" x1="20" y1="44" x2="46" y2="44" gradientUnits="userSpaceOnUse">
<stop stop-color="#B9D4EF"></stop>
<stop offset="1" stop-color="#6A7A89"></stop>
</linearGradient>
</defs>
</svg></svg></g></g></svg></g></svg>